<svg fill="#05334b" xmlns="http://www.w3.org/2000/svg"  viewBox="0 0 64 64" width="128px" height="128px"><path d="M 44.019531 6.0039062 C 43.66001 5.9946978 43.290297 6.0021875 42.912109 6.03125 C 42.843109 6.03625 42.774984 6.0483594 42.708984 6.0683594 C 36.046984 8.0073594 29.372781 16.034938 28.925781 16.585938 C 28.142781 15.829938 26.455203 14.408094 23.533203 12.871094 C 23.169203 12.681094 22.728016 12.727094 22.416016 12.996094 C 19.163016 15.785094 17.167969 19.795734 16.542969 21.177734 C 14.610969 21.656734 7.7389844 23.554453 4.5839844 27.064453 C 4.3339844 27.342453 4.259625 27.735937 4.390625 28.085938 C 6.757625 34.396937 13.381453 39.380313 15.064453 40.570312 C 15.331453 42.517313 16.568047 50.056656 20.248047 54.597656 C 20.439047 54.832656 20.725391 54.966797 21.025391 54.966797 C 21.054391 54.966797 21.082328 54.965937 21.111328 54.960938 C 30.063328 54.182938 38.350531 49.790891 40.269531 48.712891 C 42.309531 49.395891 50.834703 52.1225 54.595703 52.0625 C 54.869703 52.0545 55.1285 51.934469 55.3125 51.730469 C 55.4965 51.526469 55.588406 51.256422 55.566406 50.982422 C 55.193406 46.330422 53.896906 40.291203 53.503906 38.533203 C 54.680906 37.122203 58.620953 32.267734 59.501953 29.427734 C 59.624953 29.031734 59.491016 28.60075 59.166016 28.34375 C 55.018016 25.07875 49.66725 24.577531 47.40625 24.519531 L 47.638672 14.576172 L 48.412109 12.951172 L 52.238281 12.089844 C 52.570281 12.014844 52.842984 11.775078 52.958984 11.455078 C 53.075984 11.136078 53.021453 10.778813 52.814453 10.507812 C 52.671016 10.3175 49.412346 6.1420337 44.019531 6.0039062 z M 43.167969 8.0195312 C 46.299969 7.8265313 48.714781 9.3742031 50.050781 10.533203 L 47.8125 11.037109 C 47.76933 11.045466 47.726464 11.038363 47.683594 11.052734 C 47.649258 11.06418 47.625839 11.074512 47.591797 11.085938 L 47.498047 11.107422 C 47.396881 11.130091 47.306327 11.173355 47.21875 11.224609 C 40.308052 13.611381 39.695266 15.600026 39.361328 18.603516 C 39.290328 19.242516 39.21825 19.904953 39.03125 20.626953 C 38.14225 24.073953 33.499125 27.132109 33.453125 27.162109 C 33.131125 27.371109 32.959812 27.746953 33.007812 28.126953 L 33.914062 35.273438 L 25.814453 38.984375 C 25.624667 38.793462 25.442472 38.592137 25.271484 38.376953 C 22.550484 34.953953 22.873656 29.444219 22.972656 28.324219 C 23.680656 27.158219 27.524391 20.912547 30.400391 17.935547 C 30.465391 17.855547 37.018969 9.8745313 43.167969 8.0195312 z M 45.738281 13.916016 C 45.678994 14.041462 45.647487 14.177484 45.644531 14.316406 L 45.382812 25.496094 L 45.382812 25.525391 L 45.382812 31.900391 C 44.543812 33.358391 39.155797 42.055484 30.591797 41.146484 C 29.512968 41.031066 28.54433 40.754261 27.685547 40.328125 L 35.416016 36.785156 C 35.814016 36.603156 36.047187 36.185953 35.992188 35.751953 L 35.068359 28.478516 C 36.443359 27.485516 40.07475 24.588953 40.96875 21.126953 C 41.19075 20.266953 41.274609 19.500219 41.349609 18.824219 C 41.564874 16.881776 41.754281 15.586505 45.738281 13.916016 z M 23.212891 14.972656 C 25.658891 16.328656 27.028609 17.526891 27.599609 18.087891 C 24.593609 21.731891 21.301578 27.222281 21.142578 27.488281 C 21.070578 27.607281 21.024812 27.740906 21.007812 27.878906 C 20.970812 28.173906 20.153219 35.146234 23.699219 39.615234 C 25.315219 41.652234 27.562859 42.834766 30.380859 43.134766 C 41.041859 44.271766 47.019531 33.102 47.269531 32.625 C 47.344531 32.482 47.382812 32.322156 47.382812 32.160156 L 47.382812 26.527344 C 49.305813 26.586344 53.78375 27.005375 57.34375 29.484375 C 56.22875 32.006375 52.939203 36.124141 51.658203 37.619141 C 51.451203 37.860141 51.371359 38.186094 51.443359 38.496094 C 51.458359 38.564094 52.924797 44.917484 53.466797 50.021484 C 49.082797 49.617484 40.579328 46.708734 40.486328 46.677734 C 40.208328 46.579734 39.902391 46.613672 39.650391 46.763672 C 39.561391 46.815672 30.814563 51.941922 21.476562 52.919922 C 17.952563 48.162922 17.002188 39.974625 16.992188 39.890625 C 16.960187 39.596625 16.800687 39.330969 16.554688 39.167969 C 16.478688 39.116969 9.1630469 34.194844 6.4980469 27.964844 C 9.9240469 24.709844 17.399516 23.029672 17.478516 23.013672 C 17.799516 22.941672 18.065453 22.716156 18.189453 22.410156 C 18.207453 22.365156 20.004891 17.999656 23.212891 14.972656 z M 3.3457031 29.291016 C 3.2159219 29.275938 3.0805156 29.287172 2.9472656 29.326172 L 1.0175781 29.890625 C 0.48457812 30.046625 0.17898437 30.606672 0.33398438 31.138672 C 0.35998438 31.225672 0.39445312 31.306859 0.43945312 31.380859 C 0.66945312 31.759859 1.1340781 31.951313 1.5800781 31.820312 L 3.5117188 31.255859 C 4.0457187 31.099859 4.3493594 30.541766 4.1933594 30.009766 C 4.0771094 29.610016 3.7350469 29.33625 3.3457031 29.291016 z M 5.1484375 33.978516 C 5.0193281 33.997672 4.8919375 34.041031 4.7734375 34.113281 L 3.0566406 35.158203 C 2.5826406 35.446203 2.4317031 36.064062 2.7207031 36.539062 C 3.0097031 37.014063 3.6275625 37.165953 4.1015625 36.876953 L 5.8183594 35.830078 C 6.2913594 35.542078 6.4432969 34.924219 6.1542969 34.449219 C 5.9375469 34.092969 5.5357656 33.921047 5.1484375 33.978516 z M 8.4804688 37.957031 C 8.2232188 37.962906 7.9668906 38.066578 7.7753906 38.267578 L 6.3867188 39.720703 C 6.0647187 40.056703 6.0229062 40.556547 6.2539062 40.935547 C 6.2989062 41.009547 6.3539219 41.078625 6.4199219 41.140625 C 6.8209219 41.523625 7.4587969 41.509422 7.8417969 41.107422 L 9.2304688 39.654297 C 9.6144688 39.252297 9.6012656 38.616375 9.1972656 38.234375 C 8.9967656 38.042875 8.7377187 37.951156 8.4804688 37.957031 z M 12.734375 40.980469 C 12.344375 40.941 11.950703 41.132797 11.751953 41.498047 L 10.787109 43.263672 C 10.609109 43.590672 10.629547 43.972531 10.810547 44.269531 C 10.899547 44.415531 11.0275 44.540906 11.1875 44.628906 C 11.6745 44.895906 12.285781 44.715516 12.550781 44.228516 L 13.515625 42.464844 C 13.782625 41.976844 13.600234 41.363609 13.115234 41.099609 C 12.993484 41.032859 12.864375 40.993625 12.734375 40.980469 z"/></svg>
